<svg id="Lager_1" data-name="Lager 1" xmlns="http://www.w3.org/2000/svg" viewBox="0 0 503.61 401.04"><defs><style>.cls-1{fill:#21386f;}</style></defs><title>news</title><path class="cls-1" d="M720.49,276.81,339,276.6h0a16.89,16.89,0,0,0-9.42,2.86,16.93,16.93,0,0,0-11.56,16v48.07H250.83a17,17,0,0,0-16.94,18.19l20.53,267.08c2.06,28.91,21.19,47.59,48.75,47.59,18.68,0,96.42.3,175.55.6,82.07.32,165.64.64,186.45.64,48,0,72.29-22.1,72.29-65.67V293.79A17,17,0,0,0,720.49,276.81ZM318,627.62a14.84,14.84,0,0,1-14.83,14.83c-6.39,0-13.86-1.82-14.87-16l-19.24-248.9H318ZM703.5,612c0,21.93-5.53,31.71-38.33,31.71-20.8,0-104.31-.32-186.32-.64-47.88-.18-95.16-.36-129.26-.47a48.7,48.7,0,0,0,2.37-15v-317l351.54.19Z" transform="translate(-233.85 -276.6)"/><polygon class="cls-1" points="178.85 108.16 202.3 150.9 220.54 150.9 220.54 73.05 202.3 73.05 202.3 116.12 178.73 73.05 160.66 73.05 160.66 150.9 178.85 150.9 178.85 108.16"/><polygon class="cls-1" points="286.14 133.27 252.74 133.27 252.74 117.92 282.85 117.92 282.85 102.05 252.74 102.05 252.74 89.67 285.19 89.67 285.19 73.05 233.35 73.05 233.35 150.9 286.14 150.9 286.14 133.27"/><polygon class="cls-1" points="323.01 150.9 333.95 101.89 344.93 150.9 363.9 150.9 377.7 73.05 359.42 73.05 352.8 116.58 343.09 73.05 324.78 73.05 315.1 116.63 308.48 73.05 290.11 73.05 304.04 150.9 323.01 150.9"/><path class="cls-1" d="M643.88,413.54a9.52,9.52,0,0,1-8.54-4.73c-1.23-1.94-2-4.78-2.44-8.49l-18.41,1.43q.81,11.79,7,19.43t22.13,7.65q9.09,0,15.07-3.26A22.63,22.63,0,0,0,668,416a29.15,29.15,0,0,0,3.34-13.81,26,26,0,0,0-2.51-11.52,21.19,21.19,0,0,0-8-8.63q-5.49-3.48-18.17-6.88c-3.42-.88-5.58-1.84-6.5-2.87a4.76,4.76,0,0,1-1.4-3.34,6,6,0,0,1,1.71-4.33,6.7,6.7,0,0,1,5.08-1.78,8.55,8.55,0,0,1,6.42,2.39c1.56,1.59,2.57,4.14,3.06,7.65l18.23-1.33q-1.18-12.11-7.49-17.66t-18.3-5.55q-9.78,0-15.4,3.06a20,20,0,0,0-8.41,8.39,24.14,24.14,0,0,0-2.79,11.34q0,9.13,5.46,15t18.15,9.46q7.77,2.12,9.91,4.51a7.92,7.92,0,0,1,2.13,5.42,8,8,0,0,1-2.24,5.6A8.27,8.27,0,0,1,643.88,413.54Z" transform="translate(-233.85 -276.6)"/><path class="cls-1" d="M396.48,497.26H660.3a17,17,0,1,0,0-34H396.48a17,17,0,0,0,0,34Z" transform="translate(-233.85 -276.6)"/><path class="cls-1" d="M396.48,554.49H660.3a17,17,0,0,0,0-34H396.48a17,17,0,0,0,0,34Z" transform="translate(-233.85 -276.6)"/><path class="cls-1" d="M396.48,611.71H597.42a17,17,0,1,0,0-34H396.48a17,17,0,0,0,0,34Z" transform="translate(-233.85 -276.6)"/></svg>